<svg width="147" height="75" viewBox="0 0 147 75" fill="none" xmlns="http://www.w3.org/2000/svg">
<path fill-rule="evenodd" clip-rule="evenodd" d="M0 23.4449V35.1706H29.9828C33.4678 35.1706 37.9202 31.4842 37.9202 25.3859C37.9202 22.9332 38.7402 21.3334 36.2203 18.0891L32.3852 12.8909C30.1878 10.5457 32.6478 10.5457 34.4936 10.5457H47.1526V35.1706H57.1919V10.5457H70.7228V0H26.9077C21.5769 0 18.9703 5.85543 19.1169 8.90412C19.2644 11.9528 19.7546 15.7884 24.1844 20.3962C28.2253 24.598 22.1838 23.4449 21.5769 23.4449H0ZM92.922 0H76.7261L67.647 35.1715H77.7511L79.3903 30.2467H90.0504L91.6328 35.1715H101.53L92.922 0ZM81.6461 21.8033L85.1312 8.90412L88.412 21.8033H81.6461ZM133.513 23.4449C129.618 23.4449 129.618 21.8033 129.618 21.8033C132.955 21.8033 135.915 16.2408 135.915 10.5457C135.915 4.85064 131.053 0 127.156 0H105.367V35.1715H116.439V23.4458C116.439 23.4458 121.153 29.7777 123.613 32.3574C126.074 34.937 126.278 35.1715 129.617 35.1715H146.997V23.4458C146.998 23.4449 137.408 23.4449 133.513 23.4449ZM123.467 15.2369H116.44V8.90412H123.467C126.689 8.90412 127.246 15.2369 123.467 15.2369ZM0 39.6264H11.3269L14.1969 51.3539L16.8619 39.6264H28.7528L31.8278 51.3539L34.9036 39.6264H44.7436L35.7228 74.8063H26.7027L22.7502 58.1539L18.2969 74.8063H9.07188L0 39.6264ZM67.9897 39.8294H51.7938L42.7155 75H52.8189L54.4589 70.0761H65.1197L66.7022 75H76.6005L67.9897 39.8294ZM56.7147 61.6318L60.1997 48.7326L63.4797 61.6318H56.7147ZM133.717 50.1814C131.874 50.1814 129.863 50.4279 132.062 52.7721L135.898 57.9713C138.417 61.2156 138.376 62.568 138.376 65.0225C138.376 71.1199 133.103 74.8063 129.618 74.8063L105.394 74.9926C102.056 74.9926 101.852 74.759 99.3913 72.1793C96.9321 69.5997 92.2162 63.2669 92.2162 63.2669V74.9926H81.1462V39.822H102.935C106.83 39.822 111.694 44.6735 111.694 50.3677C111.694 56.0637 108.735 61.6253 105.395 61.6253C105.395 61.6253 106.864 63.3141 109.324 63.3141C111.784 63.3141 121.257 63.3253 121.257 63.3253C121.863 63.3253 127.903 64.4784 123.863 60.2766C119.433 55.6688 118.943 51.835 118.796 48.7863C118.648 45.7377 120.953 39.6273 126.281 39.6273H147V50.1823L133.717 50.1814ZM99.2438 55.058H92.2154V48.7252H99.2438C102.466 48.7252 103.023 55.058 99.2438 55.058Z" fill="black"/>
</svg>
